<?xml version="1.0" encoding="UTF-8"?>
<svg width="69px" height="69px" viewBox="0 0 69 69" version="1.1" xmlns="http://www.w3.org/2000/svg" xmlns:xlink="http://www.w3.org/1999/xlink">
    <!-- Generator: Sketch 53.2 (72643) - https://sketchapp.com -->
    <title>idoso@2x</title>
    <desc>Created with Sketch.</desc>
    <defs>
        <polygon id="path-1" points="0.294950656 0.0522310345 13.0417539 0.0522310345 13.0417539 12.3711052 0.294950656 12.3711052"></polygon>
    </defs>
    <g id="fluxo-final---show-rua" stroke="none" stroke-width="1" fill="none" fill-rule="evenodd">
        <g id="feirao_001" transform="translate(-93.000000, -242.000000)">
            <g id="deposito-copy-7" transform="translate(57.000000, 186.000000)">
                <g id="80+" transform="translate(33.285141, 56.748092)">
                    <g id="Group-13" transform="translate(3.275410, 0.000000)">
                        <g id="Group-3" transform="translate(7.642623, 0.000000)">
                            <mask id="mask-2" fill="white">
                                <use xlink:href="#path-1"></use>
                            </mask>
                            <g id="Clip-2"></g>
                            <path d="M6.6683523,12.3711052 C10.1883261,12.3711052 13.0417539,9.61341207 13.0417539,6.21153621 C13.0417539,2.80966034 10.1883261,0.0519672414 6.6683523,0.0519672414 C3.14837852,0.0519672414 0.294950656,2.80966034 0.294950656,6.21153621 C0.294950656,9.61341207 3.14837852,12.3711052 6.6683523,12.3711052" id="Fill-1" fill="#5B5A5A" mask="url(#mask-2)"></path>
                        </g>
                        <g id="Group-6" transform="translate(0.000000, 11.606897)" fill="#5B5A5A">
                            <path d="M44.0240193,13.8132621 C44.9771636,14.3860925 43.5922111,13.1855528 43.3279948,12.8588931 C42.4037833,11.6891901 41.5363456,10.4818559 40.6689079,9.28131627 C39.6453423,7.86073864 38.6332407,6.42657196 37.643521,4.98770139 C36.3628357,3.12129861 33.7490587,2.88767161 31.6680816,2.38539968 C28.7786243,1.68713194 25.877157,1.07092111 22.935839,0.655932646 C17.7874407,-1.09705388 11.0051587,4.27166336 14.5567948,10.0862057 C14.6878111,10.2999718 14.8122767,10.5189645 14.9449308,10.7332532 C12.2317997,14.0338227 8.16101115,15.2662443 3.08630951,14.7561326 C-0.0335183607,14.4425393 -0.774852787,17.8753406 0.802257049,19.7663082 L0.802257049,55.3607153 L3.08630951,55.3607153 L3.08630951,20.9297393 C9.25172262,21.552222 14.4323292,19.8483651 18.2410849,16.3157366 C19.789262,19.0131616 21.3003177,21.7215624 22.7709767,24.4571412 C18.745498,27.1158897 15.227162,30.3344023 12.1477308,34.0436883 C11.0908652,35.3132185 11.0974161,36.6334463 11.680439,37.6954822 C11.6618784,38.0717942 11.6940866,38.4742389 11.8114554,38.9085656 C12.9998833,43.397131 14.183398,47.8919683 15.3718259,52.380011 C16.625762,57.1711939 24.5375144,55.7997459 23.2704767,50.9913154 C22.0820489,46.4964781 20.9001718,42.0084354 19.7117439,37.5135981 C19.6986423,37.4634232 19.6784439,37.4184748 19.6647964,37.362028 C22.1928669,34.526622 25.1210833,32.0194436 28.430339,30.0448511 C28.8304849,37.5329364 29.2322685,45.4778226 29.6324144,52.3993493 C29.9211964,57.3530781 37.9443128,56.9636997 37.6549849,51.9974272 C37.110721,42.4668043 36.5593603,31.0133317 36.0014489,21.4832315 C35.9555931,20.6156233 35.6602603,19.9110837 35.2262685,19.3701353 C35.0952521,18.9499203 34.9172882,18.5218654 34.6885554,18.0891067 C33.1250931,15.1779156 31.5168669,12.2797908 29.8627849,9.41354811 C30.5588095,9.58863771 31.2477374,9.77208978 31.9366652,9.9539739 C34.2092538,13.4803305 36.7242226,17.9814396 40.1901521,20.0945358 C44.3400964,22.6210525 48.1537652,16.3157366 44.0240193,13.8132621" id="Fill-4"></path>
                        </g>
                        <polygon id="Fill-7" fill="#5B5A5A" points="43.359744 10.5517241 43.359744 7.62591152 40.3967213 7.62591152 40.3967213 6.1073657 43.359744 6.1073657 43.359744 3.16551724 45.0597712 3.16551724 45.0597712 6.1073657 48.0393443 6.1073657 48.0393443 7.62591152 45.0597712 7.62591152 45.0597712 10.5517241"></polygon>
                        <path d="M53.4983607,5.87323506 C54.0316839,5.87323506 54.462703,5.72723316 54.7902999,5.43472064 C55.1173378,5.14220813 55.2811362,4.75303931 55.2811362,4.26721418 C55.2811362,3.79308954 55.1173378,3.4090079 54.7902999,3.11649538 C54.462703,2.82398287 54.0316839,2.67798097 53.4983607,2.67798097 C52.9644784,2.67798097 52.5340183,2.82398287 52.2064214,3.11649538 C51.8793835,3.4090079 51.7155851,3.79817672 51.7155851,4.28349313 C51.7155851,4.7586352 51.8793835,5.14220813 52.2064214,5.43472064 C52.5340183,5.72723316 52.9644784,5.87323506 53.4983607,5.87323506 M53.4804714,11.0392604 C54.1228073,11.0392604 54.6382413,10.8764708 55.0267734,10.5508917 C55.4147465,10.2253125 55.6087331,9.79188531 55.6087331,9.25111869 C55.6087331,8.71035208 55.4181008,8.27946843 55.0357181,7.95948518 C54.6533353,7.63950192 54.146846,7.47925594 53.5162499,7.47925594 C52.873355,7.47925594 52.357921,7.64255423 51.9699479,7.96762466 C51.5814157,8.29371252 51.3879882,8.72663104 51.3879882,9.26739765 C51.3879882,9.80867298 51.5786205,10.2390479 51.9610032,10.5590312 C52.343386,10.8795231 52.8493163,11.0392604 53.4804714,11.0392604 M53.4804714,12.662069 C52.1700839,12.662069 51.1174133,12.3639606 50.3230188,11.7677437 C49.5286243,11.1715269 49.1311475,10.3825062 49.1311475,9.4001729 C49.1311475,8.72663104 49.3105991,8.15025421 49.667825,7.67002497 C50.02561,7.18979573 50.5443983,6.82809764 51.2241898,6.58543944 C50.1200876,6.09961431 49.5683161,5.26633518 49.5683161,4.08509334 C49.5683161,3.48887653 49.7438543,2.9593017 50.096049,2.49535142 C50.4476845,2.03190985 50.9239858,1.67631638 51.5243937,1.42755356 C52.1248017,1.17929946 52.7945305,1.05517241 53.5346982,1.05517241 C54.3106444,1.05517241 54.9965853,1.18794766 55.5908438,1.45248072 C56.1851024,1.71752249 56.6396011,2.07922057 56.9554582,2.53706625 C57.2707562,2.99542064 57.4284052,3.5112601 57.4284052,4.08509334 C57.4284052,4.6594353 57.2886455,5.1589958 57.009685,5.58377485 C56.7307245,6.00855389 56.3187127,6.34278123 55.7725315,6.58543944 C56.451764,6.82809764 56.9705522,7.18979573 57.3288963,7.67002497 C57.6861222,8.15025421 57.8655738,8.72663104 57.8655738,9.4001729 C57.8655738,10.0620143 57.6771776,10.6394085 57.3015034,11.1303208 C56.9252701,11.6217419 56.4064818,11.9992102 55.7456977,12.2642519 C55.0843545,12.5292937 54.3290927,12.662069 53.4804714,12.662069" id="Fill-9" fill="#5B5A5A"></path>
                        <path d="M63.3159154,10.9400605 C64.0218262,10.9400605 64.5564099,10.5951501 64.9212932,9.90532929 C65.2861764,9.21550848 65.4688891,8.19705621 65.4688891,6.85048121 C65.4688891,4.13494765 64.7505083,2.77768958 63.3159154,2.77768958 C62.6213902,2.77768958 62.0916861,3.12259999 61.727345,3.81242081 C61.3624618,4.50224162 61.1808334,5.52069389 61.1808334,6.86726889 C61.1808334,9.58229373 61.8921659,10.9400605 63.3159154,10.9400605 M63.3159154,12.662069 C61.9393351,12.662069 60.8685411,12.1574213 60.1040755,11.1471085 C59.3390677,10.1367957 58.957377,8.7108608 58.957377,6.86726889 C58.957377,5.03486876 59.3390677,3.6079164 60.1040755,2.58692055 C60.8685411,1.5659247 61.9393351,1.05517241 63.3159154,1.05517241 C64.7038813,1.05517241 65.7800971,1.56032881 66.5451049,2.57013288 C67.3095705,3.58044566 67.6918033,5.0068893 67.6918033,6.85048121 C67.6918033,8.69407312 67.3095705,10.1235691 66.5451049,11.138969 C65.7800971,12.154369 64.7038813,12.662069 63.3159154,12.662069" id="Fill-11" fill="#5B5A5A"></path>
                    </g>
                </g>
            </g>
        </g>
    </g>
</svg>